<svg id="Layer_1" data-name="Layer 1" xmlns="http://www.w3.org/2000/svg" xmlns:xlink="http://www.w3.org/1999/xlink" viewBox="0 0 939.82 320.44">
  <defs>
    <style>
      .cls-1 {
        fill: url(#linear-gradient);
      }

      .cls-2 {
        fill: #444;
      }
    </style>
    <linearGradient id="linear-gradient" x1="1089.21" y1="502.91" x2="947.01" y2="265.66" gradientUnits="userSpaceOnUse">
      <stop offset="0" stop-color="#60b1f3"/>
      <stop offset="0.4" stop-color="#74bced"/>
      <stop offset="1" stop-color="#99cfe3"/>
    </linearGradient>
  </defs>
  <title>Blowsys</title>
  <g>
    <path class="cls-1" d="M1157.74,305.4c-.06-.18-.16-.35-.23-.53a6.5,6.5,0,0,0-.5-1.11c-.13-.2-.29-.37-.43-.55a5.8,5.8,0,0,0-.72-.84,5.59,5.59,0,0,0-.6-.46,5.5,5.5,0,0,0-.61-.47l-133.38-76.78a3.83,3.83,0,0,0-.43-.17,3.27,3.27,0,0,0-.33-.14,6.65,6.65,0,0,0-2.87-.55l-.11,0c-.07,0-.13.05-.2.06a6.53,6.53,0,0,0-2.76.82L881.19,301.44l-.11.08c-.14.08-.25.2-.38.29a7.19,7.19,0,0,0-1.17,1c-.14.17-.27.35-.4.53a6.58,6.58,0,0,0-.7,1.24c-.08.19-.17.38-.24.58a6.61,6.61,0,0,0-.35,2V460.77a6.64,6.64,0,0,0,.33,2c.07.21.17.39.25.59a6.53,6.53,0,0,0,.65,1.19,4.63,4.63,0,0,0,.43.56,5.9,5.9,0,0,0,1,.93,6,6,0,0,0,.5.38c.07,0,.12.11.19.15l133.38,76.76a6.71,6.71,0,0,0,1,.4c.13,0,.25.15.38.19h0l.2.05.22,0a5.43,5.43,0,0,0,.58.13,6.74,6.74,0,0,0,1,.08,6.66,6.66,0,0,0,3.35-.9l133.27-76.7h0l.09-.05.06-.05a5.42,5.42,0,0,0,.64-.42c.09-.07.14-.17.22-.24a7,7,0,0,0,1.22-1.33c0-.08.14-.13.19-.21a.41.41,0,0,1,0-.08,6.55,6.55,0,0,0,.85-2.41c0-.1.08-.17.09-.27a5.53,5.53,0,0,0,0-.71s0,0,0-.07V307.22A7,7,0,0,0,1157.74,305.4Zm-83.38,191.94L1037,518.82l27.22-45.09,58.43-4.2Zm-17.62-39.66L941.06,393.11,1094.93,355Zm49.08-93.49,35.9,90.57-71.52,5.15ZM1051,469.78l-33.27,55.13L943.21,409.63ZM936.9,380.37l81.72-138,75.51,99.07Zm-13.15-4.06L893.18,310l106-61Zm-8.24,14.13-24.27,44.21V337.76Zm8,13.32L997.29,518l-103.73-59.7Zm190.15-56.23,31-26V425.68Zm-6.93-11.65-63.31-83.06,96.28,55.42Z" transform="translate(-218.18 -223.78)"/>
    <g>
      <path class="cls-2" d="M275.81,386.23a22.66,22.66,0,0,1,5.49,15.23q0,11.35-7.77,18.37t-22.51,7H218.18V332.66h32.43q14.2,0,21.38,6.35t7.17,17q0,9.22-5,14.76a23.4,23.4,0,0,1-12.73,7.28A24.57,24.57,0,0,1,275.81,386.23ZM227.7,374.74h21.71q9.91,0,15.07-4.61t5.16-12.62c0-5.25-1.7-9.4-5.09-12.42s-8.62-4.55-15.68-4.55H227.7ZM265.89,414q5.89-4.87,5.9-13.56,0-8.53-6-13.56t-16.62-5H227.7v37h21.71Q260,418.83,265.89,414Z" transform="translate(-218.18 -223.78)"/>
      <path class="cls-2" d="M309.57,419.36h34.31v7.49H300.06V332.66h9.51Z" transform="translate(-218.18 -223.78)"/>
      <path class="cls-2" d="M425.89,337.74a43.5,43.5,0,0,1,16.41,17.1,54.83,54.83,0,0,1,0,49.76,43.42,43.42,0,0,1-16.41,17.17,48.37,48.37,0,0,1-47.17,0A43.51,43.51,0,0,1,362.3,404.6a54.91,54.91,0,0,1,0-49.76,43.59,43.59,0,0,1,16.42-17.1,48.3,48.3,0,0,1,47.17,0Zm-42.15,7.35a33.93,33.93,0,0,0-13,13.76,48,48,0,0,0,0,41.68,34,34,0,0,0,13,13.76,38.21,38.21,0,0,0,37.12,0,33.94,33.94,0,0,0,13-13.76,48,48,0,0,0,0-41.68,33.88,33.88,0,0,0-13-13.76,38.21,38.21,0,0,0-37.12,0Z" transform="translate(-218.18 -223.78)"/>
      <path class="cls-2" d="M581.06,332.66l-24.39,94.19H545.42l-23.59-80.7-23.72,80.7H486.86l-24.39-94.19h10.45l19.7,82.56,23.85-82.56h10.59l23.85,82.7,19.83-82.7Z" transform="translate(-218.18 -223.78)"/>
      <path class="cls-2" d="M653.09,415a22.87,22.87,0,0,1-9.32,9.22q-6.3,3.54-15.67,3.54a37.65,37.65,0,0,1-16.22-3.34,28.81,28.81,0,0,1-11.32-9.15,25.71,25.71,0,0,1-4.89-13h9.91a20.93,20.93,0,0,0,3.09,8.29,20,20,0,0,0,7.37,6.88,23.29,23.29,0,0,0,11.65,2.74q9,0,13.74-4.81a16.59,16.59,0,0,0,4.76-12.16A15.87,15.87,0,0,0,643,393a21.24,21.24,0,0,0-7.77-6.08,114.4,114.4,0,0,0-12.67-4.68,112.48,112.48,0,0,1-14.27-5.41,24.34,24.34,0,0,1-9.18-7.68q-3.75-5.07-3.75-13.49,0-10.68,7.5-17.37t20.64-6.68q13.4,0,21.24,6.55a25.61,25.61,0,0,1,9.31,16.3H644a19.42,19.42,0,0,0-6.36-10.69q-5.16-4.68-14.14-4.68-8.31,0-13.27,4.28t-4.95,11.89A14.79,14.79,0,0,0,608.4,365a20.38,20.38,0,0,0,7.57,5.75q4.49,2,12.26,4.54a109.84,109.84,0,0,1,14.54,5.48,25,25,0,0,1,9.45,8q3.88,5.34,3.88,14.16A25.37,25.37,0,0,1,653.09,415Z" transform="translate(-218.18 -223.78)"/>
      <path class="cls-2" d="M739.32,332.66,708.9,390.11v36.74h-9.51V390.11l-30.56-57.45h10.86l24.39,47.43,24.38-47.43Z" transform="translate(-218.18 -223.78)"/>
      <path class="cls-2" d="M809.74,415a22.87,22.87,0,0,1-9.32,9.22q-6.3,3.54-15.67,3.54a37.65,37.65,0,0,1-16.22-3.34,28.81,28.81,0,0,1-11.32-9.15,25.71,25.71,0,0,1-4.89-13h9.91a20.93,20.93,0,0,0,3.09,8.29,20,20,0,0,0,7.37,6.88,23.29,23.29,0,0,0,11.65,2.74q9,0,13.74-4.81a16.59,16.59,0,0,0,4.76-12.16A15.87,15.87,0,0,0,799.69,393a21.24,21.24,0,0,0-7.77-6.08,114.4,114.4,0,0,0-12.67-4.68A112.48,112.48,0,0,1,765,376.81a24.34,24.34,0,0,1-9.18-7.68q-3.75-5.07-3.75-13.49,0-10.68,7.5-17.37t20.64-6.68q13.39,0,21.24,6.55a25.61,25.61,0,0,1,9.31,16.3h-10a19.42,19.42,0,0,0-6.36-10.69q-5.16-4.68-14.14-4.68-8.31,0-13.27,4.28T762,355.24a14.79,14.79,0,0,0,3.08,9.75,20.46,20.46,0,0,0,7.57,5.75q4.49,2,12.26,4.54a109.84,109.84,0,0,1,14.54,5.48,25,25,0,0,1,9.45,8q3.89,5.34,3.88,14.16A25.37,25.37,0,0,1,809.74,415Z" transform="translate(-218.18 -223.78)"/>
    </g>
  </g>
</svg>
