<svg xmlns="http://www.w3.org/2000/svg" viewBox="0 0 280.16 320.44"><defs><style>.cls-1 { fill: white; }</style><linearGradient id="linear-gradient" x1="211.38" x2="69.17" y1="279.14" y2="41.88" gradientUnits="userSpaceOnUse"><stop offset="0" stop-color="#60b1f3"/><stop offset=".4" stop-color="#74bced"/><stop offset="1" stop-color="#99cfe3"/></linearGradient></defs><title>Asset 2</title><g id="Layer_2"><path id="Layer_1-2" d="M279.9 81.63a5.1 5.1 0 0 0-.22-.54 7.43 7.43 0 0 0-.5-1.12 4.53 4.53 0 0 0-.44-.55 5.74 5.74 0 0 0-.7-.84 7 7 0 0 0-.62-.47 4.7 4.7 0 0 0-.6-.47L143.4.88c-.13-.08-.28-.1-.4-.17s-.23-.08-.35-.13A6.65 6.65 0 0 0 139.8 0h-.1c-.08 0-.13.05-.2.06a6.83 6.83 0 0 0-2.77.82L3.35 77.66l-.1.08c-.15.1-.26.2-.4.3a7.18 7.18 0 0 0-1.15 1c-.15.16-.28.34-.4.52a6 6 0 0 0-.7 1.27c-.1.2-.18.38-.25.58a6.6 6.6 0 0 0-.35 2V237a6.4 6.4 0 0 0 .34 2 5.9 5.9 0 0 0 .24.58 6.53 6.53 0 0 0 .65 1.2 5.93 5.93 0 0 0 .43.55 6.77 6.77 0 0 0 1 .93 6 6 0 0 0 .5.38c.07.05.12.1.2.15l133.37 76.76a7.15 7.15 0 0 0 1 .4c.14.04.25.14.4.2h.2l.2.04c.2 0 .4.1.6.14a8.57 8.57 0 0 0 1 .07 6.74 6.74 0 0 0 3.33-.88l133.28-76.7.08-.06.06-.05a5.42 5.42 0 0 0 .64-.4c.1-.08.14-.18.23-.25a6.65 6.65 0 0 0 1.2-1.33c.06-.08.15-.13.2-.2s0-.06 0-.08A6.66 6.66 0 0 0 280 238c0-.1.1-.17.1-.26q0-.36 0-.72s0 0 0-.07V83.45a6.44 6.44 0 0 0-.2-1.82zm-83.38 191.93L159.2 295l27.2-45 58.44-4.2zM178.9 233.9L63.22 169.34l153.87-38.08zm49.1-93.5l35.88 90.6-71.5 5.15zM173.16 246l-33.27 55.13-74.52-115.28zm-114.1-89.4l81.72-138 75.5 99.06zm-13.15-4.07L15.35 86.2l106-61zm-8.22 14.13L13.4 210.88V114zm8 13.32l73.8 114.2-103.76-59.7zm190.15-56.23l31-26V201.9zm-6.93-11.65l-63.3-83 96.27 55.42z" class="cls-1"/></g></svg>