<svg xmlns="http://www.w3.org/2000/svg" xmlns:xlink="http://www.w3.org/1999/xlink" viewBox="0 0 280.16 320.44">
  <defs>
    <style>
      .cls-1 {
        fill: white;
      }
    </style>
    <linearGradient id="linear-gradient" x1="211.38" y1="279.14" x2="69.17" y2="41.88" gradientUnits="userSpaceOnUse">
      <stop offset="0" stop-color="#60b1f3"/>
      <stop offset="0.4" stop-color="#74bced"/>
      <stop offset="1" stop-color="#99cfe3"/>
    </linearGradient>
  </defs>
  <title>Asset 2</title>
  <g id="Layer_2" data-name="Layer 2">
    <g id="Layer_1-2" data-name="Layer 1">
      <path class="cls-1" d="M279.9,81.63a5.09,5.09,0,0,0-.22-.54,7.43,7.43,0,0,0-.51-1.11,4.53,4.53,0,0,0-.43-.55,5.74,5.74,0,0,0-.71-.84,7,7,0,0,0-.61-.46,4.71,4.71,0,0,0-.61-.47L143.43.88c-.14-.08-.29-.1-.42-.17s-.22-.09-.34-.14A6.65,6.65,0,0,0,139.8,0l-.11,0c-.07,0-.12.05-.19.06a6.83,6.83,0,0,0-2.77.82L3.35,77.66l-.11.08c-.14.09-.25.2-.38.29a7.18,7.18,0,0,0-1.16,1c-.15.17-.28.35-.41.53A6,6,0,0,0,.6,80.83c-.09.2-.18.38-.25.58a6.61,6.61,0,0,0-.35,2V237a6.41,6.41,0,0,0,.34,2,5.89,5.89,0,0,0,.24.58,6.53,6.53,0,0,0,.65,1.19,5.93,5.93,0,0,0,.43.56,6.77,6.77,0,0,0,1,.93,6,6,0,0,0,.5.38c.07.05.12.11.19.15l133.38,76.77a7.15,7.15,0,0,0,1,.39c.14.05.25.15.39.2h0l.2,0,.22.05c.2,0,.38.11.58.14a8.57,8.57,0,0,0,1,.07,6.74,6.74,0,0,0,3.34-.89l133.28-76.71h0l.08-.05.06-.05a5.42,5.42,0,0,0,.64-.42c.09-.07.14-.17.23-.24a6.65,6.65,0,0,0,1.21-1.33c.05-.08.14-.13.19-.21s0-.05,0-.07A6.66,6.66,0,0,0,280,238c0-.1.09-.17.1-.26q0-.36,0-.72s0,0,0-.07V83.44A6.44,6.44,0,0,0,279.9,81.63ZM196.52,273.56,159.2,295,186.41,250l58.43-4.2ZM178.9,233.9,63.22,169.34l153.87-38.08ZM228,140.41,263.88,231l-71.51,5.15ZM173.16,246l-33.27,55.13L65.38,185.85ZM59.07,156.6l81.71-138,75.51,99.06Zm-13.16-4.07L15.34,86.19l106-61Zm-8.23,14.13L13.4,210.88V114Zm8,13.32,73.81,114.19L15.72,234.47Zm190.15-56.23,31-26V201.91Zm-6.93-11.65-63.31-83,96.28,55.42Z"/>
    </g>
  </g>
</svg>
