<svg xmlns="http://www.w3.org/2000/svg" viewBox="0 0 939.82 320.44"><defs><style>.cls-1 { fill: url(#linear-gradient); } .cls-2 { fill: #444; }</style><linearGradient id="linear-gradient" x1="1089.21" x2="947.01" y1="502.91" y2="265.66" gradientUnits="userSpaceOnUse"><stop offset="0" stop-color="#60b1f3"/><stop offset=".4" stop-color="#74bced"/><stop offset="1" stop-color="#99cfe3"/></linearGradient></defs><title>Blowsys</title><path d="M939.56 81.62c-.06-.18-.16-.35-.23-.53a6.5 6.5 0 0 0-.5-1.12c-.13-.2-.3-.37-.43-.55a5.8 5.8 0 0 0-.72-.84 5.6 5.6 0 0 0-.6-.47 5.5 5.5 0 0 0-.6-.47L803.07.88a3.83 3.83 0 0 0-.42-.17 3.27 3.27 0 0 0-.33-.13 6.65 6.65 0 0 0-2.87-.55h-.1c-.08 0-.14.05-.2.06a6.53 6.53 0 0 0-2.77.82L663 77.66l-.1.08c-.14.08-.25.2-.38.3a7.2 7.2 0 0 0-1.17 1c-.14.16-.27.34-.4.52a6.58 6.58 0 0 0-.7 1.24c-.08.2-.17.38-.24.58a6.6 6.6 0 0 0-.34 2v153.6a6.64 6.64 0 0 0 .33 2c.06.22.16.4.24.6a6.53 6.53 0 0 0 .65 1.2 4.63 4.63 0 0 0 .42.55 5.9 5.9 0 0 0 1 .93 6 6 0 0 0 .5.38c.07 0 .12.1.2.15l133.37 76.75a6.7 6.7 0 0 0 1 .4c.12 0 .24.15.37.2l.2.04h.22a5.43 5.43 0 0 0 .57.12 6.74 6.74 0 0 0 1 .08 6.66 6.66 0 0 0 3.35-.9l133.27-76.7.08-.05.06-.05a5.42 5.42 0 0 0 .64-.42c.1-.07.14-.17.22-.24a7 7 0 0 0 1.22-1.33c0-.07.14-.12.2-.2a.4.4 0 0 1 0-.08 6.55 6.55 0 0 0 .84-2.4c0-.1.08-.18.1-.28a5.53 5.53 0 0 0 0-.7s0 0 0-.08V83.44a7 7 0 0 0-.2-1.82zm-83.38 191.94l-37.36 21.48 27.22-45.1 58.43-4.2zm-17.62-39.66l-115.68-64.57 153.87-38.1zm49.08-93.5l35.9 90.58-71.52 5.15zM832.82 246l-33.27 55.13-74.52-115.28zm-114.1-89.4l81.72-138 75.5 99.06zm-13.15-4.07L675 86.23l106-61zm-8.24 14.13l-24.27 44.2V114zm8 13.32l73.78 114.24-103.72-59.7zm190.15-56.23l31-26V201.9zm-6.93-11.65l-63.3-83.06 96.27 55.42z" class="cls-1"/><path d="M57.63 162.45a22.66 22.66 0 0 1 5.5 15.23q0 11.35-7.78 18.37t-22.5 7H0v-94.17h32.43q14.2 0 21.38 6.35t7.18 17q0 9.22-5 14.76a23.4 23.4 0 0 1-12.73 7.27 24.57 24.57 0 0 1 14.38 8.18zm-48.1-11.5h21.7q9.9 0 15.07-4.6t5.16-12.62c0-5.25-1.7-9.4-5.1-12.42s-8.6-4.54-15.67-4.54H9.5zm38.18 39.27q5.9-4.87 5.9-13.56 0-8.53-6-13.56t-16.6-5H9.5v37h21.7q10.6-.05 16.5-4.88zM91.4 195.58h34.3v7.5H81.88v-94.2h9.5zM207.7 113.96a43.5 43.5 0 0 1 16.42 17.1 54.83 54.83 0 0 1 0 49.76 43.42 43.42 0 0 1-16.4 17.17 48.37 48.37 0 0 1-47.18 0 43.5 43.5 0 0 1-16.42-17.18 54.9 54.9 0 0 1 0-49.76 43.6 43.6 0 0 1 16.42-17.1 48.3 48.3 0 0 1 47.17 0zm-42.14 7.35a33.93 33.93 0 0 0-13 13.77 48 48 0 0 0 0 41.68 34 34 0 0 0 13 13.76 38.2 38.2 0 0 0 37.12 0 33.94 33.94 0 0 0 13-13.75 48 48 0 0 0 0-41.68 33.88 33.88 0 0 0-13-13.76 38.2 38.2 0 0 0-37.12 0zM362.88 108.88l-24.4 94.2h-11.24l-23.6-80.7-23.7 80.7h-11.26l-24.4-94.2h10.46l19.7 82.56 23.85-82.56h10.58l23.85 82.7 19.83-82.7zM434.9 191.22a22.87 22.87 0 0 1-9.3 9.22q-6.3 3.54-15.68 3.54a37.65 37.65 0 0 1-16.22-3.34 28.8 28.8 0 0 1-11.32-9.15 25.7 25.7 0 0 1-4.9-13h9.92a20.93 20.93 0 0 0 3.1 8.28 20 20 0 0 0 7.36 6.88 23.3 23.3 0 0 0 11.65 2.74q9 0 13.75-4.8a16.6 16.6 0 0 0 4.76-12.17 15.87 15.87 0 0 0-3.18-10.2 21.24 21.24 0 0 0-7.77-6.1 114.4 114.4 0 0 0-12.67-4.67 112.48 112.48 0 0 1-14.27-5.4 24.34 24.34 0 0 1-9.17-7.7q-3.75-5.06-3.75-13.48 0-10.68 7.5-17.37t20.64-6.67q13.4 0 21.24 6.55a25.6 25.6 0 0 1 9.3 16.3h-10.04a19.42 19.42 0 0 0-6.36-10.7q-5.16-4.67-14.14-4.67-8.3 0-13.27 4.3t-4.95 11.88a14.8 14.8 0 0 0 3.12 9.74 20.38 20.38 0 0 0 7.57 5.75q4.48 2 12.25 4.54a109.84 109.84 0 0 1 14.54 5.5 25 25 0 0 1 9.44 8q3.88 5.33 3.88 14.15a25.37 25.37 0 0 1-3 12.07zM521.14 108.88l-30.42 57.45v36.74h-9.5v-36.74l-30.57-57.45h10.86l24.4 47.43 24.38-47.42zM591.56 191.22a22.87 22.87 0 0 1-9.32 9.22q-6.3 3.54-15.67 3.54a37.65 37.65 0 0 1-16.22-3.34 28.8 28.8 0 0 1-11.32-9.15 25.7 25.7 0 0 1-4.9-13h9.92a20.93 20.93 0 0 0 3.1 8.28 20 20 0 0 0 7.36 6.88 23.3 23.3 0 0 0 11.66 2.74q9 0 13.74-4.8a16.6 16.6 0 0 0 4.76-12.17 15.87 15.87 0 0 0-3.15-10.2 21.24 21.24 0 0 0-7.76-6.1 114.4 114.4 0 0 0-12.67-4.67 112.48 112.48 0 0 1-14.25-5.43 24.34 24.34 0 0 1-9.18-7.68q-3.75-5.07-3.75-13.5 0-10.67 7.5-17.36t20.63-6.7q13.4 0 21.24 6.56a25.6 25.6 0 0 1 9.3 16.3h-10a19.42 19.42 0 0 0-6.35-10.7q-5.16-4.67-14.14-4.67-8.3 0-13.27 4.27t-4.98 11.9a14.8 14.8 0 0 0 3.08 9.74 20.46 20.46 0 0 0 7.57 5.76q4.5 2 12.26 4.54a109.84 109.84 0 0 1 14.54 5.48 25 25 0 0 1 9.45 8q3.9 5.34 3.88 14.16a25.37 25.37 0 0 1-3.04 12.08z" class="cls-2"/></svg>