<svg xmlns="http://www.w3.org/2000/svg" width="1440" height="1067"><defs><filter id="a" width="200%" height="200%" x="-50%" y="-50%" filterUnits="objectBoundingBox"><feOffset dy="5" in="SourceAlpha" result="shadowOffsetOuter1"/><feGaussianBlur stdDeviation="15" in="shadowOffsetOuter1" result="shadowBlurOuter1"/><feColorMatrix values="0 0 0 0 0 0 0 0 0 0 0 0 0 0 0 0 0 0 0.507048234 0" in="shadowBlurOuter1" result="shadowMatrixOuter1"/><feMerge><feMergeNode in="shadowMatrixOuter1"/><feMergeNode in="SourceGraphic"/></feMerge></filter></defs><g fill="none"><g stroke="#fff" stroke-width=".308"><g><g filter="url(#a)" style="mix-blend-mode:soft-light" transform="matrix(.988 .156 -.156 .988 -126.235 39.535)"><g><g><path d="M4 0s156.18 340.87 710.05 245.18c546.43-94.4 741.13 380 873.48 662.6M4 .64c.64 4.68 158.95 342.78 707.3 250.92C1252.17 161.2 1452 622 1589.43 887.6M3.78 1.06c1.28 9.36 161.72 344.5 704.53 256.88 535.16-86.55 740.07 360.86 883.06 609.66M3.78 1.7c1.92 14.25 164.5 346.4 701.55 262.62 529.83-82.5 739.63 351.3 887.94 583.3M3.57 2.13C6.13 21.05 170.6 350.43 702.35 270.7c524.3-78.47 739.2 341.5 892.63 556.7M3.57 2.55c3.2 23.6 169.8 350.02 695.8 274.53 518.77-74.64 738.78 331.94 897.52 530.34M3.36 3.2C7.2 31.46 175.93 355.1 696.4 283.45c513.23-70.6 738.35 322.37 902.4 503.76M3.36 3.6C7.83 36.8 178.7 357.47 693.4 289.85c507.93-66.56 737.73 312.8 907.32 477.4M3.15 4.04C8.25 41.9 181.25 359.6 690.45 296c502.37-62.73 737.28 303.24 912.2 451.03M3.15 4.68C8.9 47.2 184 362.14 687.45 302.6c496.85-58.7 736.87 293.66 917.1 424.44M3.15 5.1C9.53 52.3 186.78 364.48 684.7 308.98c491.3-54.65 736.43 284.1 921.98 398.07M2.93 5.74c7.03 52.1 186.4 361.3 678.57 309.6 485.78-50.8 735.8 274.54 926.67 371.72M2.93 6.17c7.66 56.77 189.17 362.98 675.8 315.56 480.25-46.78 735.38 264.96 931.57 345.13M2.72 6.6c8.3 61.45 191.72 364.9 672.82 321.5 474.72-42.73 734.95 255.4 936.46 318.77M2.72 7.23c8.94 66.13 194.48 366.8 670.05 327.26 469.4-38.7 734.53 245.6 941.36 292.17M2.5 7.66c9.58 71.02 197.26 368.5 667.08 333.2 463.87-34.86 734.1 236.05 946.25 265.82M2.5 8.3C12.73 84 202.53 378.7 666.83 347.24c458.33-30.83 733.46 226.47 951.14 239.44M2.3 8.72c10.85 80.38 202.78 372.34 661.32 344.9 452.8-26.78 733.04 216.9 955.83 212.87M2.3 9.14C13.8 94.2 207.84 383.2 660.86 360c447.27-22.96 732.6 207.34 960.7 186.5M2.3 9.78c12.12 89.95 208.3 375.96 655.8 356.6 441.73-18.92 732.18 197.77 965.6 160.13M2.08 10.2C14.85 104.84 213.16 388.1 654.9 372.78c436.2-14.9 731.55 188.2 970.5 133.54M2.08 10.84c13.4 99.3 213.85 379.58 650.05 368.3 430.9-11.05 731.13 178.63 975.4 107.18M1.87 11.27c14.04 103.98 216.6 381.5 647.07 374.26 425.36-7.02 730.7 169.05 980.08 80.6M1.87 11.7c14.68 108.87 219.17 383.4 644.3 380.2 419.83-2.97 730.28 159.5 984.98 54.23M1.66 12.33C16.98 125.9 223.6 397.43 642.98 398.3c414.3 1.05 729.64 149.9 989.87 27.84M1.66 12.76C17.62 131 226.36 399.78 640.22 404.66c408.75 4.9 729.2 140.14 994.76 1.28M1.44 13.4c16.8 122.9 227.47 388.93 635.6 397.65 403.2 8.93 728.77 130.56 999.64-25.1M1.44 13.82c17.45 127.8 230.24 390.63 632.82 403.6 397.7 12.98 728.36 121 1004.34-51.46M1.44 14.25c18.1 132.48 233 392.54 629.84 409.55 392.37 16.8 727.93 111.43 1009.23-78.04M1.23 14.9C19.96 152.03 237 409.33 628.3 430.17c386.84 20.84 727.3 101.86 1014.13-104.4M1.23 15.3C20.6 157.16 239.76 411.7 625.33 436.57c381.3 24.88 726.86 92.3 1019-130.77M1.02 15.95c20 146.72 241.3 398.07 621.32 427.2 375.78 28.7 726.45 82.72 1023.92-157.35M1.02 16.37c20.64 151.4 243.85 400 618.35 432.95 370.24 32.75 726 73.15 1028.8-183.72M.8 16.8C22.1 172.88 247.43 418.7 616.4 455.7c364.7 36.8 725.36 63.58 1033.47-210.3M.8 17.44c21.92 160.76 249.4 403.6 612.6 444.64 359.2 40.83 724.96 54 1038.4-236.67M.6 17.86c22.55 165.65 252.14 405.52 609.83 450.6 353.86 44.66 724.52 44.44 1043.27-263.04M.6 18.5c23.2 170.33 254.9 407.43 607.06 456.55 348.33 48.7 724.1 34.66 1048.17-289.62M.6 18.93c23.82 175 257.67 409.13 604.08 462.3 342.8 52.73 723.47 25.08 1053.07-316M.38 19.35C24.85 199.05 260.83 430.4 601.7 487.6c337.27 56.56 723.04 15.52 1057.75-342.58M.38 20c25.1 184.57 263.2 412.95 598.35 473.98 331.72 60.6 722.6 5.95 1062.63-368.94M.17 20.4C25.9 209.68 266.15 435.08 595.75 500.37c326.2 64.64 722.18-3.62 1067.53-395.3M.17 21.05C52.5 407 960.24 906.5 1665.2 85.05"/></g></g></g></g></g></g></svg>